<?xml version="1.0" encoding="utf-8"?><svg xmlns="http://www.w3.org/2000/svg" viewBox="0 0 531.94 184"><title>typescript_tutorial_light</title><path d="M244.74,311.46h-14V302.6h38v8.86h-14v40.11H244.74Z" transform="translate(-28.43 -260.8)" style="fill:#333431"/><path d="M274.55,348.69l-12.17-27.8h10.73l4.39,11.81a72.93,72.93,0,0,1,2.16,7.92,52.41,52.41,0,0,1,2.09-7.92l4.75-11.81h9.87l-20.09,45.94h-9.72Z" transform="translate(-28.43 -260.8)" style="fill:#333431"/><path d="M300.83,320.89h9.72l-.22,4.76c1.88-3.32,5.12-5.4,9.87-5.4,7.42,0,13.68,6.48,13.68,15.91s-6.41,16.06-13.9,16.06c-4.68,0-7.85-2-9.43-4.76v19.37h-9.72Zm23,15.27c0-4.54-2.59-7.35-6.7-7.35s-6.91,2.81-6.91,7.35c0,4.82,2.74,7.56,6.91,7.56S323.87,341,323.87,336.16Z" transform="translate(-28.43 -260.8)" style="fill:#333431"/><path d="M357.28,344.15a13.29,13.29,0,0,0,7.7-2.45l5.55,6c-2.95,2.59-6.7,4.54-13.11,4.54-10.94,0-18-6.63-18-16.06s7.42-15.91,16.92-15.91c11,0,17,8.2,16.28,18.93H349.36C350.29,342.35,352.89,344.15,357.28,344.15Zm5.54-10.58c-.43-3.39-2.59-5.4-6.41-5.4s-6.4,1.72-7.2,5.4Z" transform="translate(-28.43 -260.8)" style="fill:#333431"/><path d="M376.28,341.92l8.21-4.75c2.16,3.53,5,6.12,9.94,6.12,4.18,0,6.84-2.09,6.84-5,0-3.46-2.74-4.68-7.34-6.7l-2.52-1.08c-7.28-3.09-12.1-7-12.1-15.19,0-7.56,5.76-13.32,14.76-13.32,6.41,0,11,2.23,14.33,8.06l-7.85,5c-1.73-3.09-3.6-4.32-6.48-4.32s-4.82,1.88-4.82,4.32c0,3,1.87,4.25,6.19,6.12l2.52,1.08c8.57,3.68,13.39,7.42,13.39,15.85,0,9.07-7.13,14-16.7,14C385.29,352.22,379.24,347.75,376.28,341.92Z" transform="translate(-28.43 -260.8)" style="fill:#333431"/><path d="M416.82,336.16c0-9.29,7.2-15.91,16.78-15.91,6.12,0,9.79,2.23,12.89,6.12L439.57,332a7.23,7.23,0,0,0-6-3.24c-4.4,0-6.84,3.1-6.84,7.42s2.44,7.63,6.84,7.63a8.07,8.07,0,0,0,6.19-2.88l6.55,5.76c-3,3.39-6.62,5.55-12.74,5.55C424,352.22,416.82,345.59,416.82,336.16Z" transform="translate(-28.43 -260.8)" style="fill:#333431"/><path d="M452.24,320.89H462l-.14,5.55c2.23-5,5.83-6.19,9-6.19a9.75,9.75,0,0,1,4.75,1.22l-3.09,8.86a8.46,8.46,0,0,0-3.75-.94c-4.39,0-6.77,2-6.77,8.57v13.61h-9.72Z" transform="translate(-28.43 -260.8)" style="fill:#333431"/><path d="M479.53,309.66a6.07,6.07,0,0,1,6.19-6.05,6.09,6.09,0,1,1,0,12.17A6.08,6.08,0,0,1,479.53,309.66Zm1.3,11.23h9.72v30.68h-9.72Z" transform="translate(-28.43 -260.8)" style="fill:#333431"/><path d="M498.54,320.89h9.72l-.22,4.76c1.88-3.32,5.12-5.4,9.87-5.4,7.41,0,13.68,6.48,13.68,15.91s-6.41,16.06-13.9,16.06c-4.68,0-7.85-2-9.43-4.76v19.37h-9.72Zm23,15.27c0-4.54-2.59-7.35-6.7-7.35s-6.91,2.81-6.91,7.35c0,4.82,2.74,7.56,6.91,7.56S521.58,341,521.58,336.16Z" transform="translate(-28.43 -260.8)" style="fill:#333431"/><path d="M540.08,340.05V329h-4.54v-8.07h4.54v-16h9.65v16h7.85V329h-7.85v11.38c0,3.09,1,3.74,2.52,3.74a5.86,5.86,0,0,0,3.38-1.3l3.68,6.77a12.91,12.91,0,0,1-8.57,2.81C544.55,352.36,540.08,349.26,540.08,340.05Z" transform="translate(-28.43 -260.8)" style="fill:#333431"/><path d="M247.6,381.52h-7v-4.43h19v4.43h-7v20.05h-5Z" transform="translate(-28.43 -260.8)" style="fill:#818181"/><path d="M284.83,392.71V377.09h5v15.34c0,3.56,1.55,4.93,4.89,4.93s4.83-1.37,4.83-4.93V377.09h5v15.62c0,6.19-4.29,9.18-9.87,9.18S284.83,398.9,284.83,392.71Z" transform="translate(-28.43 -260.8)" style="fill:#818181"/><path d="M336.81,381.52h-7v-4.43h19v4.43h-7v20.05h-5Z" transform="translate(-28.43 -260.8)" style="fill:#818181"/><path d="M371.88,389.33a12.67,12.67,0,1,1,12.67,12.56A12.39,12.39,0,0,1,371.88,389.33Zm20.15,0c0-4.57-3-8.06-7.48-8.06s-7.49,3.49-7.49,8.06,3,8.06,7.49,8.06S392,393.9,392,389.33Z" transform="translate(-28.43 -260.8)" style="fill:#818181"/><path d="M441.17,401.57h-5.83l-4-6.19a10,10,0,0,1-1.44.11h-1.73v6.08h-5V377.09h6.77c6.84,0,10.94,3.28,10.94,9.25,0,3.82-1.69,6.23-4.71,7.6Zm-11.44-10.48c4.1,0,5.9-1.29,5.9-4.75s-1.87-4.82-5.9-4.82h-1.59v9.57Z" transform="translate(-28.43 -260.8)" style="fill:#818181"/><path d="M466.92,377.09h5v24.48h-5Z" transform="translate(-28.43 -260.8)" style="fill:#818181"/><path d="M507.7,376.88h.43l11.2,24.69H514l-1.15-2.77H503l-1.15,2.77h-4.86Zm3.39,17.71-1.77-4.25c-.72-1.73-1.47-4.39-1.47-4.39a44.61,44.61,0,0,1-1.44,4.39l-1.77,4.25Z" transform="translate(-28.43 -260.8)" style="fill:#818181"/><path d="M544.24,377.09h5v20.05h11.09v4.43H544.24Z" transform="translate(-28.43 -260.8)" style="fill:#818181"/><circle cx="92" cy="92" r="92" style="fill:#2479bf"/><path d="M95.65,337.39h-14v-8.85h38v8.85h-14V377.5H95.65Z" transform="translate(-28.43 -260.8)" style="fill:#fff"/><path d="M122.1,366.85l8.21-4.75c2.16,3.53,5,6.12,9.94,6.12,4.17,0,6.84-2.09,6.84-5,0-3.46-2.74-4.68-7.35-6.7l-2.52-1.08c-7.27-3.09-12.09-7-12.09-15.19,0-7.56,5.76-13.32,14.76-13.32,6.41,0,11,2.23,14.33,8.06l-7.85,5c-1.73-3.09-3.6-4.32-6.48-4.32s-4.83,1.88-4.83,4.32c0,3,1.87,4.25,6.2,6.13l2.52,1.08c8.56,3.67,13.39,7.41,13.39,15.84,0,9.07-7.13,14-16.71,14C131.1,377.15,125.05,372.68,122.1,366.85Z" transform="translate(-28.43 -260.8)" style="fill:#fff"/></svg>