<?xml version="1.0" encoding="UTF-8"?><svg xmlns="http://www.w3.org/2000/svg" xmlns:xlink="http://www.w3.org/1999/xlink" width="208" height="521" viewBox="-0.5 -0.5 208 521" ><style><![CDATA[.B{pointer-events:all}.C{fill:#b0b0b0}.D{font-family:Helvetica}.E{font-size:12px}.F{text-anchor:middle}.G{fill:none}.H{pointer-events:stroke}.I{stroke:#b0b0b0}.J{stroke-miterlimit:10}]]></style><g class="I J"><path d="M99 41v33.63" class="G H"/><use xlink:href="#B" class="B C"/></g><ellipse cx="99" cy="21" rx="50" ry="20" fill="#e3c800" class="B"/><text x="98.5" y="24.5" fill="#000" class="D E F">Start</text><g class="I J"><path d="M149 395h50V103.5h-43.63" class="G H"/><path d="M150.12 103.5l7-3.5-1.75 3.5 1.75 3.5z" class="B C"/><path d="M99 430v38.63" class="G H"/><use xlink:href="#B" y="394" class="B C"/></g><path d="M99 360l50 35-50 35-50-35z" fill="#d80073" class="B"/><text x="98.5" y="398.5" fill="#fff" class="D E F">Condition</text><g class="I J"><path d="M99 126v20-8 13.63" class="G H"/><use xlink:href="#B" y="77" class="B C"/></g><rect x="49" y="81" width="100" height="45" rx="7" fill="#1ba1e2" class="B"/><text x="98.5" y="106.5" fill="#fff" class="D E F">Statements</text><path d="M79.61 475h38.78c16.9 0 30.61 10.07 30.61 22.5S135.29 520 118.39 520H79.61C62.71 520 49 509.93 49 497.5S62.71 475 79.61 475z" fill="#e3c800" class="B"/><text x="98.5" y="500.5" fill="#000" class="D E F">End</text><text x="170.5" y="387.5" class="C D E F">true</text><text x="119.5" y="450.5" class="C D E F">false</text><g class="I J"><path d="M99 312v41.63" class="G H"/><use xlink:href="#B" y="279" class="B C"/></g><rect x="49" y="267" width="100" height="45" rx="7" fill="#1ba1e2" class="B"/><text x="98.5" y="292.5" fill="#fff" class="D E F">Statements</text><g class="I J"><path d="M49 193H7v304.5h35.63" class="G H"/><path d="M47.88 497.5l-7 3.5 1.75-3.5-1.75-3.5z" class="B C"/><path d="M99 228v20-1 13.63" class="G H"/><use xlink:href="#B" y="186" class="B C"/></g><path d="M99 158l50 35-50 35-50-35z" fill="#d80073" class="B"/><text x="98.5" y="196.5" fill="#fff" class="D E F">break</text><text x="28.5" y="185.5" class="C D E F">Yes</text><text x="119.5" y="244.5" class="C D E F">No</text><defs ><path id="B" d="M99 79.88l-3.5-7 3.5 1.75 3.5-1.75z"/></defs></svg>